screens;
 
http://baypic.net/share.php?id=FEE6_50DCA5FF
 
http://baypic.net/share.php?id=498F_50DCA5B4

************************************************

Enjoy This Release

Brought to you by

XxX - Releasers Group	

*************************************************


Format                                   : MPEG-4
Format profile                           : Base Media
Codec ID                                 : isom
File size                                : 561 MiB
Duration                                 : 15mn 10s
Overall bit rate mode                    : Variable
Overall bit rate                         : 5 169 Kbps
Writing application                      : Lavf52.64.2

Video
ID                                       : 1
Format                                   : AVC
Format/Info                              : Advanced Video Codec
Format profile                           : High@L4.0
Format settings, CABAC                   : Yes
Format settings, ReFrames                : 2 frames
Codec ID                                 : avc1
Codec ID/Info                            : Advanced Video Coding
Duration                                 : 15mn 10s
Bit rate                                 : 5 013 Kbps
Width                                    : 1 920 pixels
Height                                   : 1 080 pixels
Display aspect ratio                     : 16:9
Frame rate mode                          : Constant
Frame rate                               : 29.970 fps
Color space                              : YUV
Chroma subsampling                       : 4:2:0
Bit depth                                : 8 bits
Scan type                                : Progressive
Bits/(Pixel*Frame)                       : 0.081
Stream size                              : 544 MiB (97%)
Writing library                          : x264 core 102 r1666 d058f37


Audio
ID                                       : 2
Format                                   : AAC
Format/Info                              : Advanced Audio Codec
Format profile                           : LC
Codec ID                                 : 40
Duration                                 : 15mn 10s
Bit rate mode                            : Variable
Bit rate                                 : 151 Kbps
Channel(s)                               : 2 channels
Channel positions                        : Front: L R
Sampling rate                            : 44.1 KHz
Compression mode                         : Lossy
Delay relative to video                  : 33ms
Stream size                              : 16.4 MiB (3%)
